<svg width="292" height="170" viewBox="0 0 292 170" fill="none" xmlns="http://www.w3.org/2000/svg">
<path fill-rule="evenodd" clip-rule="evenodd" d="M193.98 0.146973L291.071 114.071L265.632 135.969L193.492 51.3213C192.685 52.2323 191.848 53.1759 190.984 54.151C181.801 64.5117 169.513 78.3701 157.095 92.361C132.602 119.953 106.719 149.065 104.219 151.596C98.5065 157.377 91.7191 161.969 84.2407 165.103C76.7622 168.238 68.7426 169.853 60.641 169.853C52.5393 169.853 44.5196 168.238 37.0411 165.103C29.5627 161.969 22.7753 157.377 17.0633 151.596C10.7601 145.217 6.55188 137.347 4.04058 130.28C1.95416 124.409 1.30072 118.341 1.06634 114.377C0.941649 112.269 0.920502 109.114 0.9311 107.8C0.9311 107.8 30.6251 107.8 34.4415 107.8C34.4415 107.8 34.4293 108.862 34.4249 109.412C34.4191 110.127 34.4307 111.17 34.5023 112.381C34.6604 115.055 35.0537 117.466 35.584 118.959C36.8796 122.604 38.8086 125.831 40.8297 127.876C43.4421 130.519 46.5371 132.611 49.9349 134.035C53.3327 135.459 56.9702 136.191 60.641 136.191C64.3117 136.191 67.9491 135.459 71.3469 134.035C74.7448 132.611 77.8399 130.519 80.4522 127.876C80.4406 127.887 80.457 127.87 80.5063 127.817C80.6433 127.669 81.0352 127.246 81.7929 126.413C82.7008 125.413 83.9333 124.046 85.4535 122.353C88.4901 118.97 92.614 114.354 97.4606 108.917C107.151 98.0447 119.686 83.937 132.099 69.9524C144.511 55.9688 156.793 42.1174 165.973 31.7607C170.563 26.5824 174.376 22.2782 177.043 19.2687L181.227 14.5463C181.227 14.5463 181.228 14.545 193.737 25.7358L181.227 14.5463L193.98 0.146973Z" fill="#141414"/>
</svg>
