<svg width="254" height="72" viewBox="0 0 254 72" fill="none" xmlns="http://www.w3.org/2000/svg">
<g clip-path="url(#clip0_1796_1186)">
<path d="M63.4004 21.8801H68.7004V33.2801H80.9004V21.8801H86.3004V49.8801H80.9004V38.0801H68.7004V49.8801H63.4004V21.8801Z" fill="black"/>
<path d="M89.7002 44.4802C89.7002 40.2802 92.7002 38.8802 96.3002 38.0802L102.4 36.6802V36.1802C102.4 34.1802 101.1 32.8802 99.0002 32.8802C96.9002 32.8802 95.6002 34.0802 95.2002 35.9802L90.6002 35.4802C91.3002 31.6802 94.5002 29.1802 99.1002 29.1802C104.2 29.1802 107.5 32.3802 107.5 37.0802V45.2802C107.5 45.7802 107.7 45.9802 108 45.9802H109.1V50.0802H106C104 50.0802 103.2 49.4802 103.2 47.8802C103.2 47.3802 103.3 46.8802 103.5 46.0802L103.1 45.8802C101.7 48.9802 99.5002 50.3802 96.5002 50.3802C92.3002 50.1802 89.7002 47.8802 89.7002 44.4802ZM97.8002 46.4802C100.4 46.4802 102.3 44.5802 102.3 41.4802V39.8802L97.9002 40.8802C95.7002 41.3802 94.8002 42.1802 94.8002 43.8802C94.8002 45.5802 96.0002 46.4802 97.8002 46.4802Z" fill="black"/>
<path d="M111 44.3802L115.9 43.3802C116.4 45.5802 118.1 46.5802 120.4 46.5802C122.7 46.5802 124 45.6802 124 44.0802C124 42.4802 122.5 42.1802 119.6 41.6802C116 41.0802 111.3 40.4802 111.3 35.3802C111.3 31.5802 114.5 28.9802 119.8 28.9802C124.5 28.9802 128.1 30.9802 128.9 34.8802L124 35.6802C123.6 33.6802 121.9 32.6802 119.8 32.6802C117.4 32.6802 116.3 33.6802 116.3 35.0802C116.3 36.6802 117.9 36.9802 120.7 37.4802C124.3 38.0802 129 38.6802 129 43.7802C129 47.7802 125.8 50.3802 120.4 50.3802C115.5 50.3802 111.9 48.3802 111 44.3802Z" fill="black"/>
<path d="M137.301 49.8801H132.101V21.0801H137.301V30.0801C137.301 31.0801 137.101 32.0801 136.801 33.5801L137.301 33.7801C138.501 30.7801 140.401 29.0801 143.901 29.0801C148.301 29.0801 150.701 31.8801 150.701 36.6801V49.9801H145.501V36.7801C145.501 34.4801 144.301 33.1801 142.001 33.1801C139.401 33.1801 137.301 35.1801 137.301 38.6801V49.8801Z" fill="black"/>
<path d="M161.4 44.6801C161.4 45.4801 161.7 45.6801 162.3 45.6801H164.6V49.7801H159.9C157.5 49.7801 156.3 48.4801 156.3 45.9801V33.6801H153.4V29.5801H161.5V44.6801H161.4ZM155.5 24.0801C155.5 22.2801 156.9 20.8801 158.7 20.8801C160.5 20.8801 161.9 22.2801 161.9 24.0801C161.9 25.8801 160.5 27.2801 158.7 27.2801C156.9 27.2801 155.5 25.8801 155.5 24.0801Z" fill="black"/>
<path d="M166.301 35.8801C166.301 27.4801 171.801 21.3801 179.801 21.3801C186.501 21.3801 191.101 25.2801 192.401 30.4801L187.101 31.7801C186.101 28.0801 183.701 25.9801 179.801 25.9801C174.901 25.9801 171.801 29.9801 171.801 35.7801C171.801 41.5801 175.001 45.5801 180.001 45.5801C183.901 45.5801 186.301 43.4801 187.301 39.5801L192.301 40.1801C191.101 46.4801 186.501 50.2801 179.901 50.2801C171.801 50.3801 166.301 44.2801 166.301 35.8801Z" fill="black"/>
<path d="M194.5 39.6801C194.5 33.4801 198.9 29.0801 204.9 29.0801C210.9 29.0801 215.3 33.4801 215.3 39.6801C215.3 45.8801 210.9 50.3801 204.9 50.3801C198.9 50.3801 194.5 45.8801 194.5 39.6801ZM210.1 39.6801C210.1 35.8801 208.1 33.2801 204.9 33.2801C201.7 33.2801 199.7 35.8801 199.7 39.6801C199.7 43.4801 201.8 46.0801 204.9 46.0801C208 46.0801 210.1 43.5801 210.1 39.6801Z" fill="black"/>
<path d="M218.5 29.5801H223.3V30.3801C223.3 31.4801 223.3 32.3801 222.9 33.9801L223.4 34.0801C224.2 31.3801 225.6 29.5801 228.8 29.5801H230.3V34.5801H228.2C225.3 34.5801 223.7 36.3801 223.7 39.5801V49.8801H218.5V29.5801Z" fill="black"/>
<path d="M232.801 29.5801H237.901V30.4801C237.901 31.3801 237.801 32.0801 237.501 33.7801L238.001 33.8801C239.201 30.6801 241.601 29.0801 244.601 29.0801C249.601 29.0801 253.501 33.1801 253.501 39.6801C253.501 46.1801 249.601 50.3801 244.601 50.3801C241.601 50.3801 239.401 48.7801 238.101 45.5801L237.701 45.7801C237.901 47.3801 238.001 48.1801 238.001 48.9801V58.0801H232.801V29.5801ZM248.301 39.6801C248.301 35.6801 246.101 33.2801 243.101 33.2801C240.101 33.2801 237.901 35.6801 237.901 39.6801C237.901 43.6801 240.101 46.0801 243.101 46.0801C246.101 46.0801 248.301 43.6801 248.301 39.6801Z" fill="black"/>
<path d="M21.2 9.68018L0.5 21.6802V50.3802L8.2 54.8802V26.1802L21.2 18.6802V9.68018Z" fill="black"/>
<path d="M29.5004 9.68018V32.5802H21.2004V23.9802L13.4004 28.4802V57.7802L21.2004 62.2802V39.4802H29.5004V47.9802L37.2004 43.4802V14.1802L29.5004 9.68018Z" fill="black"/>
<path d="M29.5 62.2802L50.2 50.3802V21.6802L42.4 17.1802V45.8802L29.5 53.3802V62.2802Z" fill="black"/>
</g>
<defs>
<clipPath id="clip0_1796_1186">
<rect width="253" height="71.96" fill="white" transform="translate(0.5)"/>
</clipPath>
</defs>
</svg>
