<?xml version="1.0" encoding="utf-8" ?>
<svg baseProfile="tiny" height="100%" version="1.2" viewBox="0,0,1550,1162" width="100%" xmlns="http://www.w3.org/2000/svg" xmlns:ev="http://www.w3.org/2001/xml-events" xmlns:xlink="http://www.w3.org/1999/xlink"><defs /><path d="M250,1119 L249,1130 L246,1132 L245,1151 L243,1153 L243,1161 L248,1161 L249,1158 Z" fill="none" stroke="black" stroke-width="1" /><path d="M444,1103 L436,1161 L447,1161 L447,1117 Z" fill="none" stroke="black" stroke-width="1" /><path d="M398,1098 L394,1105 L395,1134 L391,1137 L391,1156 L431,1157 L431,1136 L434,1134 L437,1098 L414,1098 L411,1095 L408,1098 Z" fill="none" stroke="black" stroke-width="1" /><path d="M366,1092 L366,1161 L384,1161 L392,1095 L389,1092 L385,1094 Z" fill="none" stroke="black" stroke-width="1" /><path d="M532,1090 L519,1089 L512,1094 L511,1161 L525,1161 Z" fill="none" stroke="black" stroke-width="1" /><path d="M602,1080 L593,1081 L584,1135 L583,1161 L596,1159 L597,1150 L600,1148 Z" fill="none" stroke="black" stroke-width="1" /><path d="M677,1059 L672,1101 L673,1161 L730,1161 L696,1066 L690,1058 Z" fill="none" stroke="black" stroke-width="1" /><path d="M454,1054 L451,1058 L463,1064 L453,1076 L454,1120 L459,1121 L459,1126 L454,1127 L455,1152 L460,1131 L461,1152 L465,1156 L472,1056 Z" fill="none" stroke="black" stroke-width="1" /><path d="M315,1038 L308,1076 L310,1161 L317,1159 L319,1136 Z" fill="none" stroke="black" stroke-width="1" /><path d="M455,1024 L452,1028 L452,1031 L451,1032 L451,1037 L452,1038 L452,1043 L454,1044 L458,1044 L460,1043 L459,1042 L459,1040 L461,1038 L461,1028 L459,1027 L457,1024 Z" fill="none" stroke="black" stroke-width="1" /><path d="M124,1010 L110,1161 L131,1161 Z" fill="none" stroke="black" stroke-width="1" /><path d="M478,1005 L481,1025 L505,1029 L656,1028 L655,1013 Z" fill="none" stroke="black" stroke-width="1" /><path d="M445,1005 L414,1013 L383,1030 L354,1039 L339,1051 L363,1048 L384,1038 L439,1025 L445,1021 Z" fill="none" stroke="black" stroke-width="1" /><path d="M676,1001 L675,1009 L678,1014 L678,1017 L675,1021 L675,1040 L679,1044 L681,1042 L685,1042 L686,1037 L684,1031 L684,1024 L679,1017 L680,1005 Z" fill="none" stroke="black" stroke-width="1" /><path d="M441,900 L391,913 L381,924 L384,1008 L378,1019 L447,995 L446,916 Z" fill="none" stroke="black" stroke-width="1" /><path d="M452,893 L459,929 L456,1010 L466,1012 L466,968 L460,961 L466,963 L472,919 L467,904 L475,903 L475,895 L459,897 Z" fill="none" stroke="black" stroke-width="1" /><path d="M704,887 L683,915 L680,986 L709,1088 L739,1156 L812,1158 L774,1074 L729,892 Z" fill="none" stroke="black" stroke-width="1" /><path d="M327,879 L275,882 L264,895 L256,1157 L303,1158 L305,1024 Z" fill="none" stroke="black" stroke-width="1" /><path d="M1286,858 L1293,1157 Z" fill="none" stroke="black" stroke-width="1" /><path d="M546,859 L546,893 L550,896 L557,896 L560,893 L564,893 L570,886 L579,883 L587,876 L587,874 L582,874 L574,868 L557,862 L554,858 Z" fill="none" stroke="black" stroke-width="1" /><path d="M530,854 L531,855 L531,867 L532,869 L534,870 L532,871 L531,875 L534,874 L537,876 L538,873 L537,869 L539,866 L539,857 L537,856 L534,857 L533,859 L532,856 Z" fill="none" stroke="black" stroke-width="1" /><path d="M650,796 L649,800 L651,802 L651,805 L652,806 L652,813 L653,815 L660,817 L662,813 L661,812 L661,809 L658,805 L658,801 L655,799 L655,797 L654,796 Z" fill="none" stroke="black" stroke-width="1" /><path d="M1284,782 L1283,822 L1285,843 L1286,783 Z" fill="none" stroke="black" stroke-width="1" /><path d="M1545,737 L1399,766 L1393,835 L1302,863 L1302,1157 L1545,1157 Z" fill="none" stroke="black" stroke-width="1" /><path d="M328,713 L324,720 L324,778 L329,756 L332,754 L338,741 L338,728 L334,719 Z" fill="none" stroke="black" stroke-width="1" /><path d="M1034,633 L1042,1128 Z" fill="none" stroke="black" stroke-width="1" /><path d="M72,627 L32,720 L32,735 L63,747 L84,768 L116,687 Z" fill="none" stroke="black" stroke-width="1" /><path d="M1015,613 L1032,1161 Z" fill="none" stroke="black" stroke-width="1" /><path d="M1337,600 L1247,765 L1298,759 L1295,850 L1384,827 L1385,731 L1435,712 Z" fill="none" stroke="black" stroke-width="1" /><path d="M1244,403 L1236,400 L1231,404 L1226,403 L1221,407 L1213,408 L1192,422 L1186,421 L1184,424 L1192,423 L1194,425 L1183,431 L1228,414 L1237,405 Z" fill="none" stroke="black" stroke-width="1" /><path d="M1287,383 L1286,382 L1284,385 L1283,381 L1278,382 L1278,384 L1269,388 L1270,391 L1265,395 L1257,395 L1255,397 L1251,394 L1245,395 L1254,398 L1247,404 L1254,404 L1259,400 L1264,400 L1272,396 L1276,392 L1281,391 L1282,387 Z" fill="none" stroke="black" stroke-width="1" /><path d="M1408,338 L1403,332 L1375,347 L1349,353 L1359,357 L1340,358 L1284,379 L1292,382 L1289,388 L1339,371 L1343,363 L1352,365 L1399,346 L1393,340 Z" fill="none" stroke="black" stroke-width="1" /><path d="M78,310 L71,334 L100,353 L73,341 L74,381 L114,373 L117,388 L68,388 L36,569 L126,684 L157,636 L101,549 L63,543 L98,541 L153,371 L121,323 Z" fill="none" stroke="black" stroke-width="1" /><path d="M1544,277 L1445,314 L1446,320 L1421,325 L1423,332 L1432,333 L1465,320 L1462,316 L1473,317 L1497,303 L1542,291 Z" fill="none" stroke="black" stroke-width="1" /><path d="M199,20 L209,25 L239,15 L247,17 L244,13 L262,8 L252,12 L244,3 L246,0 L258,6 L279,3 L285,8 L290,0 L226,0 L221,9 Z" fill="none" stroke="black" stroke-width="1" /><path d="M156,25 L156,28 L163,27 L166,30 L165,37 L176,39 L192,30 L205,37 L202,27 L185,23 L189,20 L186,14 L206,7 L212,0 L182,0 L184,8 L179,19 L174,23 Z" fill="none" stroke="black" stroke-width="1" /><path d="M149,0 L148,7 L152,13 L154,14 L160,14 L162,12 L170,13 L164,6 L170,1 L173,0 Z" fill="none" stroke="black" stroke-width="1" /><path d="M0,1161 L72,307 L188,1142 L389,646 L476,977 L677,751 L1019,1161 L976,521 L1544,349 L1033,495 L1506,273 L1546,2 L4,0 Z" fill="none" stroke="black" stroke-width="1" /></svg>