<?xml version="1.0" ?>
<svg xmlns="http://www.w3.org/2000/svg" version="1.1">
	<path d="M 0 1 L 0 359 L 639 358 L 639 1 Z" fill="rgb(221,165,86)" fill-opacity="0.5" stroke="blue" stroke-width="1"/>
	<path d="M 326 342 Z" fill="rgb(173,117,6)" fill-opacity="0.5" stroke="blue" stroke-width="1"/>
	<path d="M 326 339 Z" fill="rgb(4,3,39)" fill-opacity="0.5" stroke="blue" stroke-width="1"/>
	<path d="M 238 338 Z" fill="rgb(124,13,239)" fill-opacity="0.5" stroke="blue" stroke-width="1"/>
	<path d="M 325 336 L 326 336 Z" fill="rgb(66,9,174)" fill-opacity="0.5" stroke="blue" stroke-width="1"/>
	<path d="M 308 335 L 309 335 Z" fill="rgb(82,138,117)" fill-opacity="0.5" stroke="blue" stroke-width="1"/>
	<path d="M 238 335 Z" fill="rgb(10,172,163)" fill-opacity="0.5" stroke="blue" stroke-width="1"/>
	<path d="M 324 330 L 325 331 L 326 331 L 326 330 Z" fill="rgb(110,10,183)" fill-opacity="0.5" stroke="blue" stroke-width="1"/>
	<path d="M 325 328 L 326 328 Z" fill="rgb(120,1,31)" fill-opacity="0.5" stroke="blue" stroke-width="1"/>
	<path d="M 310 328 L 311 329 L 310 330 L 310 331 L 311 331 L 311 328 Z" fill="rgb(198,106,231)" fill-opacity="0.5" stroke="blue" stroke-width="1"/>
	<path d="M 325 322 L 325 324 L 324 325 L 327 325 L 326 324 L 326 322 Z" fill="rgb(245,126,190)" fill-opacity="0.5" stroke="blue" stroke-width="1"/>
	<path d="M 301 317 Z" fill="rgb(145,150,74)" fill-opacity="0.5" stroke="blue" stroke-width="1"/>
	<path d="M 316 316 L 315 316 L 313 318 L 313 323 L 311 325 L 310 325 L 311 325 L 312 324 L 314 324 L 314 323 L 313 322 L 316 319 L 315 319 L 314 318 L 315 317 L 316 317 Z" fill="rgb(193,139,242)" fill-opacity="0.5" stroke="blue" stroke-width="1"/>
	<path d="M 326 314 L 326 315 L 325 316 L 325 317 L 326 318 L 325 319 L 324 319 L 325 320 L 327 320 L 327 319 L 326 318 Z" fill="rgb(244,200,202)" fill-opacity="0.5" stroke="blue" stroke-width="1"/>
	<path d="M 304 313 L 303 313 L 302 314 L 301 314 L 302 314 L 303 313 Z" fill="rgb(201,128,19)" fill-opacity="0.5" stroke="blue" stroke-width="1"/>
	<path d="M 308 312 Z" fill="rgb(175,118,7)" fill-opacity="0.5" stroke="blue" stroke-width="1"/>
	<path d="M 306 311 Z" fill="rgb(91,167,40)" fill-opacity="0.5" stroke="blue" stroke-width="1"/>
	<path d="M 338 308 L 335 308 L 334 309 L 330 308 L 329 309 L 322 309 L 321 310 L 320 309 L 309 309 L 308 310 L 312 311 L 315 314 L 317 314 L 320 311 L 323 310 L 328 312 L 333 310 L 336 311 L 335 310 L 338 309 Z" fill="rgb(119,24,84)" fill-opacity="0.5" stroke="blue" stroke-width="1"/>
	<path d="M 314 21 L 261 34 L 219 65 L 192 109 L 180 178 L 235 264 L 322 294 L 414 255 L 459 172 L 447 109 L 420 65 L 378 34 Z" fill="rgb(114,43,104)" fill-opacity="0.5" stroke="blue" stroke-width="1"/>
	<path d="M 335 311 L 336 311 Z" fill="rgb(189,183,44)" fill-opacity="0.5" stroke="blue" stroke-width="1"/>
	<path d="M 330 311 L 332 311 Z" fill="rgb(93,26,105)" fill-opacity="0.5" stroke="blue" stroke-width="1"/>
	<path d="M 333 308 Z" fill="rgb(30,58,186)" fill-opacity="0.5" stroke="blue" stroke-width="1"/>
	<path d="M 251 297 L 236 308 L 232 320 L 233 332 L 236 339 L 246 348 L 255 351 L 269 350 L 284 337 L 287 328 L 286 314 L 276 301 L 268 297 Z" fill="rgb(248,249,181)" fill-opacity="0.5" stroke="blue" stroke-width="1"/>
	<path d="M 253 297 L 244 301 L 236 309 L 233 316 L 233 331 L 245 347 L 256 351 L 268 350 L 284 336 L 287 327 L 286 316 L 275 301 L 266 297 Z" fill="rgb(10,11,171)" fill-opacity="0.5" stroke="blue" stroke-width="1"/>
	<path d="M 19 0 L 0 0 L 0 40 L 2 39 L 3 34 L 15 27 L 15 21 L 19 13 Z" fill="rgb(34,39,65)" fill-opacity="0.5" stroke="blue" stroke-width="1"/>
</svg>
