<?xml version="1.0" ?>
<svg xmlns="http://www.w3.org/2000/svg" version="1.1">
	<path d="M 160 32 L 154 34 L 148 39 L 145 46 L 145 54 L 150 63 L 157 67 L 165 68 L 177 61 L 180 54 L 180 46 L 174 36 L 168 32 Z" fill="rgb(223,213,154)" fill-opacity="0.5" stroke="blue" stroke-width="1"/>
	<path d="M 309 106 L 306 110 L 306 119 L 305 120 L 305 125 L 306 126 L 315 126 L 316 125 L 316 122 L 315 121 L 315 112 L 313 107 L 312 106 Z" fill="rgb(175,246,169)" fill-opacity="0.5" stroke="blue" stroke-width="1"/>
	<path d="M 407 106 L 404 110 L 404 123 L 403 125 L 404 126 L 413 126 L 414 125 L 414 122 L 413 121 L 413 110 L 411 107 Z" fill="rgb(207,92,33)" fill-opacity="0.5" stroke="blue" stroke-width="1"/>
	<path d="M 205 104 L 205 108 L 212 108 L 212 105 L 211 104 L 211 103 L 206 103 Z" fill="rgb(49,57,68)" fill-opacity="0.5" stroke="blue" stroke-width="1"/>
	<path d="M 407 37 L 407 45 L 410 45 L 410 38 L 409 37 Z" fill="rgb(35,146,169)" fill-opacity="0.5" stroke="blue" stroke-width="1"/>
</svg>
