<?xml version="1.0" ?>
<svg xmlns="http://www.w3.org/2000/svg" version="1.1">
	<path d="M 348 185 L 343 190 L 341 198 L 341 207 L 343 214 L 348 219 L 361 218 L 364 215 L 366 209 L 365 190 L 362 186 Z" fill="rgb(34,40,222)" fill-opacity="0.5" stroke="blue" stroke-width="1"/>
	<path d="M 588 252 L 585 252 L 583 254 L 583 258 L 584 259 L 585 259 L 586 260 L 587 259 L 588 259 L 590 257 L 590 255 L 589 254 L 589 253 Z" fill="rgb(37,151,182)" fill-opacity="0.5" stroke="blue" stroke-width="1"/>
	<path d="M 435 252 L 432 252 L 431 253 L 431 254 L 430 255 L 430 257 L 433 260 L 434 259 L 435 259 L 437 257 L 437 254 Z" fill="rgb(163,181,88)" fill-opacity="0.5" stroke="blue" stroke-width="1"/>
	<path d="M 51 252 L 49 254 L 49 257 L 51 259 L 54 259 L 56 257 L 56 255 L 55 254 L 55 253 L 54 252 Z" fill="rgb(11,129,20)" fill-opacity="0.5" stroke="blue" stroke-width="1"/>
	<path d="M 509 252 L 506 255 L 506 256 L 508 258 L 508 259 L 512 259 L 512 258 L 514 256 L 513 255 L 513 254 L 511 252 Z" fill="rgb(20,79,16)" fill-opacity="0.5" stroke="blue" stroke-width="1"/>
	<path d="M 128 252 L 126 254 L 126 258 L 127 259 L 131 259 L 131 258 L 132 257 L 132 254 L 130 252 Z" fill="rgb(77,142,73)" fill-opacity="0.5" stroke="blue" stroke-width="1"/>
</svg>
