<?xml version="1.0" ?>
<svg xmlns="http://www.w3.org/2000/svg" version="1.1">
	<path d="M 639 97 Z" fill="rgb(121,208,23)" fill-opacity="0.5" stroke="blue" stroke-width="1"/>
	<path d="M 0 2 L 0 359 L 639 358 L 639 115 L 313 113 L 639 108 L 639 1 Z" fill="rgb(87,68,171)" fill-opacity="0.5" stroke="blue" stroke-width="1"/>
	<path d="M 223 195 L 207 205 L 202 220 L 203 230 L 210 242 L 216 246 L 234 249 L 246 244 L 253 236 L 256 229 L 256 214 L 249 202 L 242 197 Z" fill="rgb(53,130,137)" fill-opacity="0.5" stroke="blue" stroke-width="1"/>
	<path d="M 423 89 L 421 91 L 421 93 L 423 95 L 423 97 L 421 100 L 422 101 L 428 101 L 429 100 L 429 95 L 430 94 L 430 92 L 428 89 Z" fill="rgb(68,58,72)" fill-opacity="0.5" stroke="blue" stroke-width="1"/>
	<path d="M 583 88 L 582 89 L 581 89 L 581 100 L 582 101 L 586 101 L 588 99 L 588 98 L 589 97 L 588 96 L 588 94 L 587 93 L 587 89 L 586 88 Z" fill="rgb(57,145,74)" fill-opacity="0.5" stroke="blue" stroke-width="1"/>
	<path d="M 531 215 L 530 216 L 530 219 L 529 220 L 527 220 L 525 221 L 525 222 L 526 223 L 529 223 L 530 224 L 530 227 L 531 228 L 533 228 L 533 224 L 534 223 L 537 223 L 538 221 L 536 220 L 534 220 L 533 219 L 533 216 Z" fill="rgb(141,119,219)" fill-opacity="0.5" stroke="blue" stroke-width="1"/>
	<path d="M 532 89 L 528 95 L 528 99 L 529 99 L 530 100 L 530 101 L 535 101 L 535 95 L 534 94 L 534 89 Z" fill="rgb(143,6,86)" fill-opacity="0.5" stroke="blue" stroke-width="1"/>
	<path d="M 371 202 L 370 203 L 369 203 L 369 204 L 371 207 L 371 212 L 369 214 L 370 215 L 375 215 L 375 214 L 374 213 L 374 203 L 373 202 Z" fill="rgb(68,233,242)" fill-opacity="0.5" stroke="blue" stroke-width="1"/>
</svg>
