<?xml version="1.0" ?>
<svg xmlns="http://www.w3.org/2000/svg" version="1.1">
	<path d="M 409 79 L 403 79 L 403 88 L 401 90 L 400 90 L 400 92 L 406 99 L 408 98 L 408 97 L 413 92 L 413 91 L 410 88 L 410 80 Z" fill="rgb(122,204,171)" fill-opacity="0.5" stroke="blue" stroke-width="1"/>
	<path d="M 404 141 L 403 142 L 403 151 L 401 152 L 400 154 L 405 159 L 405 160 L 407 161 L 413 154 L 413 153 L 412 153 L 410 151 L 410 142 L 409 141 Z" fill="rgb(79,160,74)" fill-opacity="0.5" stroke="blue" stroke-width="1"/>
	<path d="M 23 72 L 22 74 L 22 80 L 21 81 L 21 87 L 24 89 L 26 89 L 27 88 L 29 88 L 31 86 L 31 79 L 27 72 Z" fill="rgb(43,102,65)" fill-opacity="0.5" stroke="blue" stroke-width="1"/>
	<path d="M 399 184 L 399 189 L 400 190 L 413 190 L 414 189 L 414 187 L 413 186 L 414 185 L 414 184 L 413 183 L 400 183 Z" fill="rgb(214,136,154)" fill-opacity="0.5" stroke="blue" stroke-width="1"/>
	<path d="M 428 22 L 427 23 L 426 23 L 426 24 L 428 26 L 428 34 L 426 36 L 426 37 L 433 37 L 433 36 L 432 35 L 432 24 L 431 23 L 431 22 Z" fill="rgb(45,17,138)" fill-opacity="0.5" stroke="blue" stroke-width="1"/>
</svg>
