<?xml version="1.0" ?>
<svg xmlns="http://www.w3.org/2000/svg" version="1.1">
	<path d="M 349 284 L 350 292 L 390 292 L 389 284 L 376 283 Z" fill="rgb(123,253,169)" fill-opacity="0.5" stroke="blue" stroke-width="1"/>
	<path d="M 433 138 L 431 138 L 428 141 L 428 143 L 427 144 L 427 146 L 428 147 L 428 150 L 429 151 L 433 151 L 436 148 L 436 145 L 435 144 L 435 140 Z" fill="rgb(68,175,115)" fill-opacity="0.5" stroke="blue" stroke-width="1"/>
	<path d="M 370 82 L 370 84 L 371 85 L 371 91 L 370 92 L 370 93 L 375 93 L 374 92 L 374 89 L 373 88 L 373 87 L 374 86 L 373 85 L 373 82 Z" fill="rgb(28,100,178)" fill-opacity="0.5" stroke="blue" stroke-width="1"/>
</svg>
