<?xml version="1.0" ?>
<svg xmlns="http://www.w3.org/2000/svg" version="1.1">
	<path d="M 86 305 L 86 306 L 87 306 L 87 305 Z" fill="rgb(182,60,212)" fill-opacity="0.5" stroke="blue" stroke-width="1"/>
	<path d="M 98 276 Z" fill="rgb(48,11,128)" fill-opacity="0.5" stroke="blue" stroke-width="1"/>
	<path d="M 178 150 L 177 151 L 176 151 L 178 151 Z" fill="rgb(248,46,184)" fill-opacity="0.5" stroke="blue" stroke-width="1"/>
	<path d="M 102 285 L 482 288 L 268 168 L 269 190 L 249 193 L 251 159 L 208 134 L 202 157 L 171 161 Z" fill="rgb(20,54,109)" fill-opacity="0.5" stroke="blue" stroke-width="1"/>
	<path d="M 101 75 L 99 273 L 177 131 L 171 114 Z" fill="rgb(251,80,235)" fill-opacity="0.5" stroke="blue" stroke-width="1"/>
	<path d="M 0 0 L 0 359 L 639 359 L 639 0 L 99 1 L 106 69 L 580 292 L 106 296 L 99 340 L 46 297 L 91 286 L 91 1 Z" fill="rgb(22,209,158)" fill-opacity="0.5" stroke="blue" stroke-width="1"/>
	<path d="M 48 227 L 33 238 L 29 250 L 30 263 L 35 272 L 46 280 L 66 280 L 72 277 L 81 266 L 82 243 L 72 231 L 66 228 Z" fill="rgb(147,46,236)" fill-opacity="0.5" stroke="blue" stroke-width="1"/>
	<path d="M 253 160 L 249 172 L 249 190 L 251 191 L 255 186 L 260 185 L 263 190 L 266 191 L 267 190 L 265 168 L 258 160 Z" fill="rgb(130,86,169)" fill-opacity="0.5" stroke="blue" stroke-width="1"/>
</svg>
