<?xml version="1.0" ?>
<svg xmlns="http://www.w3.org/2000/svg" version="1.1">
	<path d="M 136 66 L 136 67 Z" fill="rgb(141,170,121)" fill-opacity="0.5" stroke="blue" stroke-width="1"/>
	<path d="M 136 55 Z" fill="rgb(45,178,195)" fill-opacity="0.5" stroke="blue" stroke-width="1"/>
	<path d="M 80 45 L 70 48 L 58 58 L 53 68 L 52 81 L 56 94 L 66 104 L 78 109 L 89 109 L 100 105 L 111 95 L 116 71 L 109 56 L 93 46 Z" fill="rgb(196,132,37)" fill-opacity="0.5" stroke="blue" stroke-width="1"/>
	<path d="M 76 23 L 75 24 L 73 24 L 75 24 Z" fill="rgb(164,60,118)" fill-opacity="0.5" stroke="blue" stroke-width="1"/>
	<path d="M 71 23 Z" fill="rgb(174,8,189)" fill-opacity="0.5" stroke="blue" stroke-width="1"/>
	<path d="M 82 45 L 73 47 L 60 56 L 54 66 L 52 80 L 57 94 L 66 103 L 88 109 L 109 97 L 114 88 L 116 74 L 113 63 L 103 51 Z" fill="rgb(159,154,176)" fill-opacity="0.5" stroke="blue" stroke-width="1"/>
	<path d="M 264 180 L 258 188 L 258 204 L 256 215 L 273 216 L 275 215 L 273 208 L 274 207 L 272 187 L 267 180 Z" fill="rgb(118,183,121)" fill-opacity="0.5" stroke="blue" stroke-width="1"/>
	<path d="M 536 179 L 528 188 L 528 206 L 526 215 L 528 216 L 540 216 L 545 214 L 543 208 L 542 187 Z" fill="rgb(98,205,24)" fill-opacity="0.5" stroke="blue" stroke-width="1"/>
	<path d="M 447 180 L 444 180 L 438 188 L 438 205 L 436 215 L 438 216 L 454 215 L 452 187 Z" fill="rgb(91,174,147)" fill-opacity="0.5" stroke="blue" stroke-width="1"/>
	<path d="M 626 180 L 624 180 L 618 188 L 618 204 L 616 215 L 618 216 L 634 215 L 632 187 Z" fill="rgb(167,113,250)" fill-opacity="0.5" stroke="blue" stroke-width="1"/>
	<path d="M 354 180 L 348 188 L 348 204 L 346 215 L 364 215 L 365 214 L 363 206 L 362 187 L 357 180 Z" fill="rgb(144,243,224)" fill-opacity="0.5" stroke="blue" stroke-width="1"/>
	<path d="M 110 128 L 106 130 L 103 134 L 102 143 L 103 146 L 108 151 L 113 152 L 118 150 L 120 148 L 122 144 L 122 136 L 118 130 L 114 128 Z" fill="rgb(80,159,63)" fill-opacity="0.5" stroke="blue" stroke-width="1"/>
	<path d="M 122 155 L 119 159 L 119 164 L 122 168 L 123 168 L 124 169 L 127 169 L 131 166 L 131 159 L 128 155 Z" fill="rgb(200,81,28)" fill-opacity="0.5" stroke="blue" stroke-width="1"/>
	<path d="M 443 84 L 441 86 L 441 93 L 442 94 L 441 96 L 441 98 L 443 100 L 446 100 L 448 99 L 450 96 L 450 88 L 447 84 Z" fill="rgb(185,75,40)" fill-opacity="0.5" stroke="blue" stroke-width="1"/>
	<path d="M 444 224 L 443 225 L 442 225 L 442 230 L 441 231 L 441 234 L 443 236 L 446 237 L 449 235 L 450 232 L 449 231 L 449 226 L 447 224 Z" fill="rgb(127,26,113)" fill-opacity="0.5" stroke="blue" stroke-width="1"/>
	<path d="M 310 69 L 309 70 L 309 74 L 306 76 L 303 76 L 303 77 L 304 78 L 308 78 L 309 79 L 309 83 L 311 84 L 312 83 L 312 79 L 313 78 L 317 78 L 318 76 L 314 76 L 312 74 L 312 71 L 311 69 Z" fill="rgb(239,230,67)" fill-opacity="0.5" stroke="blue" stroke-width="1"/>
	<path d="M 490 69 L 489 70 L 489 74 L 486 76 L 483 76 L 483 77 L 484 78 L 488 78 L 489 79 L 489 83 L 491 84 L 492 83 L 492 79 L 493 78 L 497 78 L 498 76 L 493 76 L 492 75 L 492 71 L 491 69 Z" fill="rgb(112,18,71)" fill-opacity="0.5" stroke="blue" stroke-width="1"/>
	<path d="M 623 225 L 623 227 L 622 228 L 622 235 L 623 236 L 627 236 L 629 234 L 629 230 L 627 227 L 628 226 L 628 225 Z" fill="rgb(144,239,60)" fill-opacity="0.5" stroke="blue" stroke-width="1"/>
</svg>
