<?xml version="1.0" ?>
<svg xmlns="http://www.w3.org/2000/svg" version="1.1">
	<path d="M 315 17 L 306 20 L 297 28 L 293 36 L 292 47 L 295 58 L 302 66 L 320 72 L 332 69 L 340 63 L 346 52 L 347 41 L 338 24 L 327 18 Z" fill="rgb(27,181,25)" fill-opacity="0.5" stroke="blue" stroke-width="1"/>
	<path d="M 584 88 L 583 89 L 581 89 L 581 99 L 583 101 L 586 101 L 588 99 L 588 94 L 587 93 L 587 89 L 586 88 Z" fill="rgb(152,202,185)" fill-opacity="0.5" stroke="blue" stroke-width="1"/>
	<path d="M 425 215 L 424 216 L 424 218 L 422 220 L 420 220 L 419 221 L 419 222 L 420 223 L 422 223 L 424 225 L 424 228 L 427 228 L 427 224 L 428 223 L 431 223 L 431 221 L 430 220 L 428 220 L 427 219 L 427 216 L 426 215 Z" fill="rgb(132,8,138)" fill-opacity="0.5" stroke="blue" stroke-width="1"/>
	<path d="M 532 89 L 531 90 L 531 91 L 528 94 L 528 99 L 529 99 L 530 100 L 530 101 L 535 101 L 535 95 L 534 94 L 534 89 Z" fill="rgb(184,53,185)" fill-opacity="0.5" stroke="blue" stroke-width="1"/>
	<path d="M 371 202 L 370 203 L 369 203 L 369 204 L 371 206 L 371 212 L 369 214 L 370 215 L 375 215 L 375 214 L 374 213 L 374 203 L 373 202 Z" fill="rgb(156,110,253)" fill-opacity="0.5" stroke="blue" stroke-width="1"/>
</svg>
