<?xml version="1.0" ?>
<svg xmlns="http://www.w3.org/2000/svg" version="1.1">
	<path d="M 172 52 L 170 52 L 166 55 L 166 62 L 167 63 L 166 66 L 168 68 L 172 68 L 174 67 L 175 65 L 175 63 L 176 62 L 176 57 L 175 56 L 175 54 Z" fill="rgb(35,6,57)" fill-opacity="0.5" stroke="blue" stroke-width="1"/>
	<path d="M 25 179 L 24 180 L 23 180 L 21 182 L 21 189 L 23 191 L 26 192 L 29 190 L 29 188 L 30 187 L 30 183 L 28 180 Z" fill="rgb(214,31,123)" fill-opacity="0.5" stroke="blue" stroke-width="1"/>
	<path d="M 377 44 L 377 49 L 378 50 L 391 50 L 392 49 L 392 48 L 391 47 L 391 44 Z" fill="rgb(98,18,6)" fill-opacity="0.5" stroke="blue" stroke-width="1"/>
	<path d="M 287 23 L 287 24 L 289 26 L 289 35 L 288 36 L 288 37 L 294 37 L 294 36 L 292 34 L 292 23 L 291 22 L 290 22 L 289 23 Z" fill="rgb(249,136,225)" fill-opacity="0.5" stroke="blue" stroke-width="1"/>
</svg>
