<?xml version="1.0" ?>
<svg xmlns="http://www.w3.org/2000/svg" version="1.1">
	<path d="M 603 62 L 595 76 L 596 80 L 593 101 L 595 104 L 613 103 L 611 95 L 610 75 Z" fill="rgb(147,245,169)" fill-opacity="0.5" stroke="blue" stroke-width="1"/>
	<path d="M 604 48 L 602 48 L 601 49 L 601 54 L 603 54 L 605 52 L 604 51 Z" fill="rgb(190,101,77)" fill-opacity="0.5" stroke="blue" stroke-width="1"/>
	<path d="M 536 63 L 528 74 L 528 88 L 526 98 L 527 104 L 545 103 L 542 74 L 539 71 Z" fill="rgb(199,14,183)" fill-opacity="0.5" stroke="blue" stroke-width="1"/>
	<path d="M 536 51 L 536 52 Z" fill="rgb(168,11,72)" fill-opacity="0.5" stroke="blue" stroke-width="1"/>
	<path d="M 627 295 L 626 296 L 626 303 L 630 313 L 636 322 L 639 323 L 639 295 Z" fill="rgb(252,12,172)" fill-opacity="0.5" stroke="blue" stroke-width="1"/>
	<path d="M 639 261 L 634 265 L 630 271 L 626 282 L 626 289 L 639 289 Z" fill="rgb(86,43,238)" fill-opacity="0.5" stroke="blue" stroke-width="1"/>
	<path d="M 603 288 L 599 297 L 596 299 L 593 325 L 594 329 L 611 329 L 613 327 L 611 320 L 610 300 L 604 292 Z" fill="rgb(41,131,128)" fill-opacity="0.5" stroke="blue" stroke-width="1"/>
	<path d="M 535 288 L 534 292 L 528 299 L 528 317 L 526 328 L 544 329 L 545 326 L 542 306 L 543 301 Z" fill="rgb(49,153,87)" fill-opacity="0.5" stroke="blue" stroke-width="1"/>
	<path d="M 333 64 L 329 72 L 326 74 L 325 97 L 323 103 L 325 104 L 342 103 L 340 75 L 336 71 Z" fill="rgb(227,95,25)" fill-opacity="0.5" stroke="blue" stroke-width="1"/>
	<path d="M 629 70 L 626 72 L 626 77 L 628 79 L 628 82 L 631 89 L 635 95 L 639 98 L 639 70 Z" fill="rgb(78,231,18)" fill-opacity="0.5" stroke="blue" stroke-width="1"/>
	<path d="M 639 36 L 632 42 L 632 44 L 629 48 L 628 55 L 626 59 L 626 63 L 627 64 L 639 64 Z" fill="rgb(8,191,87)" fill-opacity="0.5" stroke="blue" stroke-width="1"/>
	<path d="M 333 288 L 329 297 L 326 299 L 325 322 L 323 327 L 325 329 L 342 328 L 340 300 L 334 292 Z" fill="rgb(226,139,142)" fill-opacity="0.5" stroke="blue" stroke-width="1"/>
	<path d="M 265 291 L 258 300 L 258 315 L 256 328 L 274 329 L 275 327 L 273 321 L 272 300 L 269 297 L 268 293 Z" fill="rgb(172,255,251)" fill-opacity="0.5" stroke="blue" stroke-width="1"/>
	<path d="M 265 289 L 266 289 Z" fill="rgb(97,166,48)" fill-opacity="0.5" stroke="blue" stroke-width="1"/>
	<path d="M 132 167 L 129 170 L 129 181 L 131 184 L 137 184 L 140 181 L 140 177 L 139 176 L 139 169 L 136 167 Z" fill="rgb(95,91,22)" fill-opacity="0.5" stroke="blue" stroke-width="1"/>
	<path d="M 548 135 L 547 136 L 549 138 L 549 140 L 550 141 L 550 145 L 549 146 L 549 148 L 548 150 L 555 150 L 555 149 L 553 148 L 553 135 L 551 134 L 550 135 Z" fill="rgb(204,158,99)" fill-opacity="0.5" stroke="blue" stroke-width="1"/>
	<path d="M 347 135 L 346 136 L 347 137 L 347 148 L 346 149 L 346 150 L 352 150 L 352 149 L 351 148 L 351 146 L 350 145 L 350 135 Z" fill="rgb(255,39,165)" fill-opacity="0.5" stroke="blue" stroke-width="1"/>
</svg>
