<?xml version="1.0" ?>
<svg xmlns="http://www.w3.org/2000/svg" version="1.1">
	<path d="M 316 17 L 305 21 L 297 28 L 293 36 L 292 47 L 296 60 L 302 66 L 312 71 L 322 72 L 340 63 L 346 52 L 347 41 L 338 24 L 327 18 Z" fill="rgb(16,220,96)" fill-opacity="0.5" stroke="blue" stroke-width="1"/>
	<path d="M 583 88 L 582 89 L 581 89 L 581 95 L 580 96 L 580 99 L 582 101 L 586 101 L 587 100 L 588 100 L 588 99 L 589 98 L 589 95 L 588 94 L 588 89 L 587 89 L 586 88 Z" fill="rgb(191,139,173)" fill-opacity="0.5" stroke="blue" stroke-width="1"/>
	<path d="M 7 88 L 5 90 L 5 91 L 4 92 L 4 94 L 3 95 L 3 97 L 4 98 L 4 99 L 6 101 L 10 101 L 11 100 L 11 98 L 12 97 L 12 95 L 11 94 L 11 89 L 10 89 L 9 88 Z" fill="rgb(13,141,135)" fill-opacity="0.5" stroke="blue" stroke-width="1"/>
	<path d="M 214 215 L 213 215 L 212 216 L 212 219 L 211 220 L 209 220 L 208 221 L 207 221 L 207 222 L 208 223 L 211 223 L 212 224 L 212 228 L 214 228 L 215 227 L 215 224 L 216 223 L 219 223 L 219 221 L 218 220 L 216 220 L 215 219 L 215 217 L 214 216 Z" fill="rgb(159,82,105)" fill-opacity="0.5" stroke="blue" stroke-width="1"/>
	<path d="M 531 216 L 530 217 L 530 219 L 529 220 L 527 220 L 526 221 L 525 221 L 525 222 L 526 223 L 529 223 L 530 224 L 530 227 L 531 228 L 533 228 L 533 224 L 534 223 L 537 223 L 538 222 L 538 221 L 537 221 L 536 220 L 534 220 L 533 219 L 533 217 L 532 216 Z" fill="rgb(164,254,71)" fill-opacity="0.5" stroke="blue" stroke-width="1"/>
	<path d="M 106 216 L 106 219 L 105 220 L 102 220 L 101 221 L 101 223 L 104 223 L 106 225 L 106 228 L 108 228 L 108 227 L 109 226 L 109 224 L 110 223 L 113 223 L 113 221 L 112 220 L 110 220 L 109 219 L 108 216 Z" fill="rgb(45,122,125)" fill-opacity="0.5" stroke="blue" stroke-width="1"/>
	<path d="M 532 89 L 528 95 L 528 98 L 531 101 L 535 101 L 535 96 L 534 95 L 534 89 Z" fill="rgb(171,50,221)" fill-opacity="0.5" stroke="blue" stroke-width="1"/>
</svg>
