<?xml version="1.0" ?>
<svg xmlns="http://www.w3.org/2000/svg" version="1.1">
	<path d="M 81 45 L 68 49 L 58 58 L 53 69 L 53 85 L 56 93 L 67 104 L 77 108 L 91 108 L 111 95 L 116 73 L 113 62 L 103 51 L 93 46 Z" fill="rgb(204,84,155)" fill-opacity="0.5" stroke="blue" stroke-width="1"/>
	<path d="M 265 179 L 258 188 L 258 204 L 256 215 L 273 216 L 275 215 L 273 209 L 274 207 L 272 187 Z" fill="rgb(105,2,137)" fill-opacity="0.5" stroke="blue" stroke-width="1"/>
	<path d="M 356 179 L 352 182 L 348 189 L 348 204 L 346 215 L 348 216 L 365 215 L 363 206 L 362 187 Z" fill="rgb(245,39,159)" fill-opacity="0.5" stroke="blue" stroke-width="1"/>
	<path d="M 626 179 L 623 180 L 622 184 L 619 186 L 618 189 L 618 205 L 616 211 L 616 215 L 618 216 L 634 215 L 632 187 Z" fill="rgb(190,146,89)" fill-opacity="0.5" stroke="blue" stroke-width="1"/>
	<path d="M 447 180 L 444 180 L 438 188 L 438 205 L 436 215 L 438 216 L 454 215 L 452 187 Z" fill="rgb(15,192,38)" fill-opacity="0.5" stroke="blue" stroke-width="1"/>
	<path d="M 536 179 L 532 182 L 528 188 L 528 206 L 526 215 L 545 214 L 543 208 L 542 187 Z" fill="rgb(137,42,207)" fill-opacity="0.5" stroke="blue" stroke-width="1"/>
	<path d="M 110 128 L 106 130 L 103 134 L 102 143 L 103 146 L 108 151 L 114 152 L 120 148 L 122 143 L 122 136 L 117 129 Z" fill="rgb(115,227,163)" fill-opacity="0.5" stroke="blue" stroke-width="1"/>
	<path d="M 615 86 L 615 91 L 617 93 L 615 97 L 616 100 L 633 100 L 636 97 L 635 84 L 633 83 L 627 83 L 626 84 L 618 83 Z" fill="rgb(36,192,216)" fill-opacity="0.5" stroke="blue" stroke-width="1"/>
	<path d="M 122 155 L 119 159 L 119 164 L 120 165 L 120 166 L 123 169 L 126 169 L 127 168 L 129 168 L 131 165 L 131 159 L 128 155 Z" fill="rgb(160,185,195)" fill-opacity="0.5" stroke="blue" stroke-width="1"/>
	<path d="M 142 177 L 142 184 L 143 184 L 144 185 L 154 185 L 155 184 L 155 178 L 152 174 L 145 174 Z" fill="rgb(168,11,88)" fill-opacity="0.5" stroke="blue" stroke-width="1"/>
	<path d="M 443 84 L 441 86 L 441 93 L 442 94 L 441 96 L 441 98 L 443 100 L 446 100 L 449 98 L 449 96 L 450 95 L 450 88 L 447 84 Z" fill="rgb(209,55,120)" fill-opacity="0.5" stroke="blue" stroke-width="1"/>
	<path d="M 261 70 L 261 72 L 263 73 L 263 81 L 261 84 L 262 85 L 269 85 L 269 83 L 267 80 L 267 70 L 266 69 Z" fill="rgb(171,109,22)" fill-opacity="0.5" stroke="blue" stroke-width="1"/>
	<path d="M 444 224 L 443 225 L 442 225 L 442 232 L 441 233 L 441 234 L 443 236 L 446 237 L 449 235 L 449 226 L 447 224 Z" fill="rgb(180,202,181)" fill-opacity="0.5" stroke="blue" stroke-width="1"/>
	<path d="M 624 224 L 623 225 L 622 225 L 622 232 L 621 233 L 621 234 L 623 236 L 626 237 L 628 235 L 629 235 L 629 229 L 628 228 L 628 225 L 627 224 Z" fill="rgb(144,10,54)" fill-opacity="0.5" stroke="blue" stroke-width="1"/>
	<path d="M 310 69 L 309 70 L 309 74 L 308 75 L 303 76 L 303 77 L 304 78 L 308 78 L 309 79 L 309 83 L 311 84 L 312 83 L 312 79 L 313 78 L 317 78 L 318 76 L 313 76 L 312 75 L 312 71 L 311 69 Z" fill="rgb(84,137,187)" fill-opacity="0.5" stroke="blue" stroke-width="1"/>
	<path d="M 67 71 L 66 72 L 66 74 L 67 75 L 67 80 L 66 81 L 66 83 L 71 83 L 71 82 L 70 81 L 70 71 Z" fill="rgb(15,91,215)" fill-opacity="0.5" stroke="blue" stroke-width="1"/>
</svg>
